<?xml version="1.0" encoding="UTF-8" standalone="no"?>
<!-- Created with Inkscape (http://www.inkscape.org/) -->

<svg xmlns:dc="http://purl.org/dc/elements/1.1/" xmlns:cc="http://creativecommons.org/ns#" xmlns:rdf="http://www.w3.org/1999/02/22-rdf-syntax-ns#" xmlns:svg="http://www.w3.org/2000/svg" xmlns="http://www.w3.org/2000/svg" xmlns:sodipodi="http://sodipodi.sourceforge.net/DTD/sodipodi-0.dtd" xmlns:inkscape="http://www.inkscape.org/namespaces/inkscape" width="64pt" height="64pt" viewBox="0 0 80.000002 80.000002" id="svg2" version="1.1" inkscape:version="0.92.4 (5da689c313, 2019-01-14)" sodipodi:docname="logo.svg">
<sodipodi:namedview id="base" pagecolor="#000000" bordercolor="#666666" borderopacity="1.0" inkscape:pageopacity="0" inkscape:pageshadow="2" inkscape:zoom="1.25" inkscape:cx="6.5427701" inkscape:cy="26.014894" inkscape:document-units="pt" inkscape:current-layer="layer1" showgrid="false" inkscape:snap-bbox="true" inkscape:snap-bbox-midpoints="false" inkscape:snap-center="false" units="pt" inkscape:snap-bbox-edge-midpoints="true" inkscape:snap-global="true" fit-margin-top="0" fit-margin-left="0" fit-margin-right="0" fit-margin-bottom="0" />
<defs id="defs4" />
<metadata id="metadata7">
<rdf:RDF>
<cc:Work rdf:about="">
<dc:format>image/svg+xml</dc:format>
<dc:type rdf:resource="http://purl.org/dc/dcmitype/StillImage" />
<dc:title />
</cc:Work>
</rdf:RDF>
</metadata>
<g inkscape:label="Layer 1" inkscape:groupmode="layer" id="layer1" transform="translate(-4870.8751,-14.214463)">
<path inkscape:connector-curvature="0" id="path4550" d="m 4913.9988,24.385449 c -6.5014,0 -12.6417,0.541787 -20.2266,1.553122 -7.5851,1.047454 10.4745,9.535443 13.1834,8.632465 6.3208,-2.022669 8.6686,-2.257444 14.9894,0 3.4314,1.191931 20.9491,-7.65725 13.3641,-8.632465 -8.3073,-1.047454 -14.8089,-1.571181 -21.3103,-1.553122 z m -33.2295,7.928143 c -3.2508,-0.595965 -4.3344,21.870116 3.7924,30.502581 12.4611,13.020937 14.8088,15.404798 16.2536,10.438421 2.5285,-9.318728 -7.4044,-8.867239 -2.1671,-30.57482 2.1671,-9.60768 0.9029,-7.061285 -17.8789,-10.366182 z m 67.5426,0 c -18.6012,3.304897 -20.046,0.758502 -17.6983,10.366182 5.0567,21.707581 -4.6955,21.256092 -2.1671,30.57482 1.2642,4.966377 3.7925,2.582516 16.073,-10.438421 8.3074,-8.632465 7.2238,-31.098546 3.7924,-30.502581 z m -43.704,33.933896 c -3.0702,-0.307012 2.7089,14.555998 6.5014,12.641686 3.0702,-1.480884 4.1537,-1.57118 7.0433,0 3.4312,1.751777 10.655,-14.501819 5.5984,-12.370793 -10.8358,4.641305 -7.2239,4.189817 -18.4207,0 -0.3613,-0.180595 -0.5418,-0.252833 -0.7224,-0.270893 z" style="opacity:0.4;fill:#a1ec16;stroke-width:0.93739003" />
<path inkscape:connector-curvature="0" id="path4552" d="m 4906.5365,26.872971 c -6.5014,0 -12.6417,0.541787 -20.2266,1.553122 -7.5851,1.047454 10.4745,9.535442 13.1834,8.632465 6.3209,-2.022669 8.6686,-2.257444 14.9894,0 3.4314,1.191931 20.9491,-7.65725 13.3641,-8.632465 -8.3073,-1.047454 -14.8089,-1.571181 -21.3103,-1.553122 z m -33.2295,7.928143 c -3.2507,-0.595965 -4.3344,21.870116 3.7924,30.502581 12.4611,13.020937 14.8089,15.404797 16.2537,10.438421 2.5284,-9.318729 -7.4045,-8.867239 -2.1672,-30.574821 2.1672,-9.607679 0.903,-7.061284 -17.8789,-10.366181 z m 67.5426,0 c -18.6012,3.304897 -20.046,0.758502 -17.6983,10.366181 5.0568,21.707582 -4.6954,21.256092 -2.167,30.574821 1.2641,4.966376 3.7924,2.582516 16.0729,-10.438421 8.3074,-8.632465 7.2238,-31.098546 3.7924,-30.502581 z m -43.704,33.933896 c -3.0702,-0.307012 2.7089,14.555998 6.5014,12.641686 3.0702,-1.480884 4.1537,-1.57118 7.0433,0 3.4313,1.751777 10.655,-14.501819 5.5984,-12.370793 -10.8358,4.641305 -7.2239,4.189817 -18.4207,0 -0.3612,-0.180595 -0.5418,-0.252833 -0.7224,-0.270893 z" style="opacity:0.4;fill:#ee1b5f;stroke-width:0.93739003" />
<path style="fill:#a28062;stroke-width:0.93739003" d="m 4910.2677,26.872971 c -6.5015,0 -12.6417,0.541787 -20.2267,1.553122 -7.585,1.047454 10.4746,9.535442 13.1835,8.632465 6.3208,-2.022669 8.6685,-2.257444 14.9894,0 3.4313,1.191931 20.9491,-7.65725 13.364,-8.632465 -8.3073,-1.047454 -14.8088,-1.571181 -21.3102,-1.553122 z m -33.2295,7.928143 c -3.2508,-0.595965 -4.3344,21.870116 3.7924,30.502581 12.4611,13.020937 14.8088,15.404797 16.2536,10.438421 2.5284,-9.318729 -7.4045,-8.867239 -2.1671,-30.574821 2.1671,-9.607679 0.9029,-7.061284 -17.8789,-10.366181 z m 67.5426,0 c -18.6013,3.304897 -20.0461,0.758502 -17.6983,10.366181 5.0567,21.707582 -4.6955,21.256092 -2.1671,30.574821 1.2641,4.966376 3.7924,2.582516 16.073,-10.438421 8.3074,-8.632465 7.2237,-31.098546 3.7924,-30.502581 z m -43.7041,33.933896 c -3.0701,-0.307012 2.7089,14.555998 6.5015,12.641686 3.0701,-1.480884 4.1537,-1.57118 7.0433,0 3.4312,1.751777 10.655,-14.501819 5.5984,-12.370793 -10.8359,4.641305 -7.2239,4.189817 -18.4207,0 -0.3613,-0.180595 -0.5419,-0.252833 -0.7225,-0.270893 z" id="path1415-61-7-5" inkscape:connector-curvature="0" />
<circle style="fill:#3a3745;stroke-width:0.9375" id="path819" cx="4910.876" cy="54.209755" r="13.044759" />
<path style="fill:#ffffff;stroke-width:0.93735999" d="m 4910.8104,39.533385 c -7.9462,0 -14.6298,6.537665 -14.6298,14.646403 0,8.05456 6.6836,14.573661 14.6298,14.573661 8.1267,0 14.6266,-6.519101 14.6266,-14.573661 0,-8.108738 -6.4999,-14.646403 -14.6266,-14.646403 z m 0,3.158109 c 6.3209,0 11.5578,5.113273 11.5578,11.488294 0,6.320844 -5.2369,11.502526 -11.5578,11.412228 -6.3209,0 -11.3792,-5.091384 -11.3792,-11.412228 0,-6.375021 5.0583,-11.488294 11.3792,-11.488294 z m 0.1788,3.0523 c -0.903,0 -1.4424,0.180414 -1.9842,0.198419 l -0.1818,3.359853 -2.5299,-2.275178 c -0.7223,0.43343 -1.2638,0.994937 -1.8056,1.62702 l 1.8056,2.781118 -3.4293,-0.363755 c -0.1806,0.77656 -0.3618,1.628086 -0.5423,2.476885 l 3.2507,1.154132 -2.8903,1.69646 c 0.1807,0.848781 0.5417,1.627056 0.9028,2.331379 l 3.2508,-0.992083 -1.4452,3.194499 c 0.903,0.505668 1.445,0.921905 2.3479,1.283095 l 1.9875,-2.764592 0.7241,3.343293 h 0.3605 c 0.7225,0 1.445,-0.182636 2.3479,-0.290993 v -3.412768 l 2.348,2.275178 c 0.7224,-0.505667 1.2638,-1.064899 1.8055,-1.769222 l -1.8055,-2.63561 3.2507,0.287688 c 0.3612,-0.79462 0.3585,-1.641307 0.5391,-2.490106 l -3.0689,-1.068149 2.8903,-1.550954 c -0.3613,-0.848799 -0.7234,-1.716344 -1.0847,-2.420667 l -3.0688,0.919322 1.2632,-2.906793 c -0.7223,-0.559847 -1.263,-1.063581 -2.166,-1.352534 l -1.9875,2.562867 -0.5423,-3.197804 z m 0,4.262649 c 2.3476,-0.180596 4.3353,1.843663 4.3353,4.173345 0,2.365802 -1.9877,4.206413 -4.3353,4.206413 -2.1671,0 -4.1535,-1.930909 -4.1535,-4.206413 0,-2.329682 1.9864,-4.173345 4.1535,-4.173345 z" id="path1423-4-3-1-3" inkscape:connector-curvature="0" />
</g>
</svg>
