<?xml version="1.0" encoding="UTF-8" standalone="no"?>
<!-- Created with Inkscape (http://www.inkscape.org/) -->

<svg
 xmlns:dc="http://purl.org/dc/elements/1.1/"
 xmlns:cc="http://creativecommons.org/ns#"
 xmlns:rdf="http://www.w3.org/1999/02/22-rdf-syntax-ns#"
 xmlns:svg="http://www.w3.org/2000/svg"
 xmlns="http://www.w3.org/2000/svg"
 xmlns:sodipodi="http://sodipodi.sourceforge.net/DTD/sodipodi-0.dtd"
 xmlns:inkscape="http://www.inkscape.org/namespaces/inkscape"
 width="35.413pt"
 height="25.335pt"
 viewBox="0 0 44.267 31.67"
 id="svg2"
 version="1.1"
 inkscape:version="0.92.3 (2405546, 2018-03-11)"
 sodipodi:docname="logo.svg">
<sodipodi:namedview
 id="base"
 pagecolor="#000000"
 bordercolor="#666666"
 borderopacity="1.0"
 inkscape:pageopacity="0"
 inkscape:pageshadow="2"
 inkscape:zoom="7.4506"
 inkscape:cx="0.15191"
 inkscape:cy="21.367"
 inkscape:document-units="pt"
 inkscape:current-layer="layer1"
 showgrid="false"
 inkscape:snap-bbox="true"
 inkscape:snap-bbox-midpoints="false"
 inkscape:snap-center="false"
 units="pt"
 inkscape:snap-bbox-edge-midpoints="true"
 inkscape:snap-global="true"
 fit-margin-top="0"
 fit-margin-left="0"
 fit-margin-right="0"
 fit-margin-bottom="0" />
<defs
 id="defs4">
<pattern
 y="0"
 x="0"
 height="6"
 width="6"
 patternUnits="userSpaceOnUse"
 id="EMFhbasepattern" />
</defs>
<metadata
 id="metadata7">
<rdf:RDF>
<cc:Work
 rdf:about="">
<dc:format>image/svg+xml</dc:format>
<dc:type
 rdf:resource="http://purl.org/dc/dcmitype/StillImage" />
<dc:title></dc:title>
</cc:Work>
</rdf:RDF>
</metadata>
<g
 inkscape:label="Layer 1"
 inkscape:groupmode="layer"
 id="layer1"
 transform="translate(-4873.1,-107.23)">
<path
 style="opacity:0.4;fill:#a1ec16;stroke-width:0.99982"
 d="m 25.387,-0.00586 c -3.813,0.005334 -7.521,0.3148 -11.948,0.91211 -4.4794,0.62935 6.188,5.63295 7.788,5.09965 3.733,-1.1947 5.12,-1.3333 8.853,0 C 32.107,6.7205 42.453,1.4822 37.973,0.90625 33.119,0.2876 29.2,-0.01119 25.387,-0.00586 Z M 5.7598,4.6719 C 3.8398,4.3199 3.2002,17.599 8,22.697 c 7.36,7.68 8.746,9.1 9.6,6.166 C 19.093,23.359 13.227,23.626 16.32,10.805 17.6,5.1195 16.853,6.6345 5.7598,4.6719 Z m 39.8922,0 C 34.666,6.6345 33.813,5.1195 35.199,10.805 c 2.987,12.821 -2.772,12.554 -1.279,18.058 0.747,2.934 2.239,1.514 9.492,-6.166 4.907,-5.098 4.267,-18.3771 2.24,-18.0251 z M 25.707,7.4766 c -4.693,0 -8.641,3.8614 -8.641,8.6504 0,4.746 3.948,8.607 8.641,8.607 4.8,0 8.639,-3.861 8.639,-8.607 0,-4.789 -3.839,-8.6504 -8.639,-8.6504 z m 0,1.8672 c 3.733,0 6.826,3.0182 6.826,6.7832 0,3.723 -3.093,6.795 -6.826,6.742 -3.733,0 -6.721,-3.019 -6.721,-6.742 0,-3.765 2.988,-6.7832 6.721,-6.7832 z m 0.105,1.8022 c -0.533,0 -0.851,0 -1.171,0.118 l -0.108,1.972 -1.494,-1.343 c -0.427,0.256 -0.746,0.586 -1.066,0.97 l 1.066,1.633 -2.025,-0.215 c -0.107,0.47 -0.214,0.972 -0.321,1.473 l 1.92,0.672 -1.707,1.013 c 0.107,0.502 0.32,0.949 0.533,1.375 l 1.92,-0.585 -0.853,1.888 c 0.533,0.288 0.853,0.543 1.387,0.756 l 1.173,-1.643 0.426,1.975 h 0.215 c 0.427,0 0.853,-0.108 1.387,-0.172 v -2.004 l 1.386,1.344 c 0.427,-0.299 0.747,-0.641 1.067,-1.057 L 28.48,17.77 30.4,17.941 c 0.214,-0.469 0.212,-0.971 0.319,-1.472 L 28.906,15.84 30.613,14.912 C 30.4,14.411 30.186,13.908 29.973,13.492 L 28.16,14.037 28.906,12.32 C 28.48,11.979 28.16,11.68 27.627,11.52 l -1.174,1.503 -0.32,-1.877 z m 0,2.518 c 1.387,-0.107 2.561,1.087 2.561,2.463 0,1.387 -1.174,2.475 -2.561,2.475 -1.279,0 -2.453,-1.131 -2.453,-2.475 0,-1.376 1.174,-2.463 2.453,-2.463 z M 19.84,24.713 c -1.779,-0.18 1.64,8.608 3.84,7.478 1.813,-0.885 2.453,-0.928 4.16,0 2.026,1.024 6.293,-8.566 3.306,-7.318 -6.399,2.752 -4.265,2.485 -10.878,0 -0.167,-0.1 -0.31,-0.148 -0.428,-0.16 z"
 transform="matrix(0.93753,0,0,0.93753,4873.1,107.24)"
 id="path1526-0"
 inkscape:connector-curvature="0" />
<path
 style="opacity:0.4;fill:#ee1b5f;stroke-width:0.93736"
 d="m 4892.8,108.62 c -3.6,0 -7,0.3 -11.2,0.86 -4.2,0.59 5.8,5.28 7.3,4.78 3.5,-1.12 4.8,-1.25 8.3,0 1.9,0.67 11.6,-4.24 7.4,-4.78 -4.5,-0.58 -8.2,-0.86 -11.8,-0.86 z m -18.4,4.39 c -1.8,-0.33 -2.4,12.12 2.1,16.9 6.9,7.2 8.2,8.53 9,5.78 1.4,-5.16 -4.1,-4.91 -1.2,-16.93 1.2,-5.33 0.5,-3.91 -9.9,-5.75 z m 37.4,0 c -10.3,1.84 -11.1,0.42 -9.8,5.75 2.8,12.02 -2.6,11.77 -1.2,16.93 0.7,2.75 2.1,1.42 8.9,-5.78 4.6,-4.78 4,-17.23 2.1,-16.9 z m -18.7,2.63 c -4.4,0 -8.1,3.62 -8.1,8.11 0,4.45 3.7,8.07 8.1,8.07 4.5,0 8.1,-3.62 8.1,-8.07 0,-4.49 -3.6,-8.11 -8.1,-8.11 z m 0,1.75 c 3.5,0 6.4,2.83 6.4,6.36 0,3.49 -2.9,6.37 -6.4,6.32 -3.5,0 -6.3,-2.83 -6.3,-6.32 0,-3.53 2.8,-6.36 6.3,-6.36 z m 0.1,1.69 c -0.5,0 -0.8,0 -1.1,0.11 l -0.1,1.85 -1.4,-1.26 c -0.4,0.24 -0.7,0.55 -1,0.91 l 1,1.53 -1.9,-0.2 c -0.1,0.44 -0.2,0.91 -0.3,1.38 l 1.8,0.63 -1.6,0.95 c 0.1,0.47 0.3,0.89 0.5,1.29 l 1.8,-0.55 -0.8,1.77 c 0.5,0.27 0.8,0.51 1.3,0.71 l 1.1,-1.54 0.4,1.85 h 0.2 c 0.4,0 0.8,-0.1 1.3,-0.16 v -1.88 l 1.3,1.26 c 0.4,-0.28 0.7,-0.6 1,-0.99 l -1,-1.45 1.8,0.16 c 0.2,-0.44 0.2,-0.91 0.3,-1.38 l -1.7,-0.59 1.6,-0.87 c -0.2,-0.47 -0.4,-0.94 -0.6,-1.33 l -1.7,0.51 0.7,-1.61 c -0.4,-0.32 -0.7,-0.6 -1.2,-0.75 l -1.1,1.41 -0.3,-1.76 z m 0,2.36 c 1.3,-0.1 2.4,1.02 2.4,2.31 0,1.3 -1.1,2.32 -2.4,2.32 -1.2,0 -2.3,-1.06 -2.3,-2.32 0,-1.29 1.1,-2.31 2.3,-2.31 z m -5.6,10.36 c -1.7,-0.17 1.5,8.07 3.6,7.01 1.7,-0.83 2.3,-0.87 3.9,0 1.9,0.96 5.9,-8.03 3.1,-6.86 -6,2.58 -4,2.33 -10.2,0 -0.2,-0.1 -0.3,-0.14 -0.4,-0.15 z"
 id="path1540-7"
 inkscape:connector-curvature="0" />
<circle
 style="fill:#191423;stroke-width:3.12519;stroke-linecap:round;stroke-linejoin:round"
 id="path817"
 cx="4895.4"
 cy="123.62"
 r="6.8861" />
<path
 style="fill:#ffffff;stroke-width:0.93736"
 d="m 4895.1,115.64 c -4.4,0 -8.1,3.62 -8.1,8.11 0,4.46 3.7,8.07 8.1,8.07 4.5,0 8.1,-3.61 8.1,-8.07 0,-4.49 -3.6,-8.11 -8.1,-8.11 z m 0,1.75 c 3.5,0 6.4,2.83 6.4,6.36 0,3.5 -2.9,6.37 -6.4,6.32 -3.5,0 -6.3,-2.82 -6.3,-6.32 0,-3.53 2.8,-6.36 6.3,-6.36 z m 0.1,1.69 c -0.5,0 -0.8,0.1 -1.1,0.11 l -0.1,1.86 -1.4,-1.26 c -0.4,0.24 -0.7,0.55 -1,0.9 l 1,1.54 -1.9,-0.2 c -0.1,0.43 -0.2,0.9 -0.3,1.37 l 1.8,0.64 -1.6,0.94 c 0.1,0.47 0.3,0.9 0.5,1.29 l 1.8,-0.55 -0.8,1.77 c 0.5,0.28 0.8,0.51 1.3,0.71 l 1.1,-1.53 0.4,1.85 h 0.2 c 0.4,0 0.8,-0.1 1.3,-0.16 v -1.89 l 1.3,1.26 c 0.4,-0.28 0.7,-0.59 1,-0.98 l -1,-1.46 1.8,0.16 c 0.2,-0.44 0.2,-0.91 0.3,-1.38 l -1.7,-0.59 1.6,-0.86 c -0.2,-0.47 -0.4,-0.95 -0.6,-1.34 l -1.7,0.51 0.7,-1.61 c -0.4,-0.31 -0.7,-0.59 -1.2,-0.75 l -1.1,1.42 -0.3,-1.77 z m 0,2.36 c 1.3,-0.1 2.4,1.02 2.4,2.31 0,1.31 -1.1,2.33 -2.4,2.33 -1.2,0 -2.3,-1.07 -2.3,-2.33 0,-1.29 1.1,-2.31 2.3,-2.31 z"
 id="path1423-4-3-1-3"
 inkscape:connector-curvature="0" />
<path
 style="fill:#a28062;stroke-width:0.93739"
 d="m 4894.8,108.63 c -3.6,0 -7,0.3 -11.2,0.86 -4.2,0.58 5.8,5.28 7.3,4.78 3.5,-1.12 4.8,-1.25 8.3,0 1.9,0.66 11.6,-4.24 7.4,-4.78 -4.6,-0.58 -8.2,-0.87 -11.8,-0.86 z m -18.4,4.39 c -1.8,-0.33 -2.4,12.11 2.1,16.89 6.9,7.21 8.2,8.53 9,5.78 1.4,-5.16 -4.1,-4.91 -1.2,-16.93 1.2,-5.32 0.5,-3.91 -9.9,-5.74 z m 37.4,0 c -10.3,1.83 -11.1,0.42 -9.8,5.74 2.8,12.02 -2.6,11.77 -1.2,16.93 0.7,2.75 2.1,1.43 8.9,-5.78 4.6,-4.78 4,-17.22 2.1,-16.89 z m -24.2,18.79 c -1.7,-0.17 1.5,8.06 3.6,7 1.7,-0.82 2.3,-0.87 3.9,0 1.9,0.97 5.9,-8.03 3.1,-6.85 -6,2.57 -4,2.32 -10.2,0 -0.2,-0.1 -0.3,-0.14 -0.4,-0.15 z"
 id="path1415-61-7-5"
 inkscape:connector-curvature="0" />
</g>
</svg>
