<?xml version="1.0" encoding="UTF-8" standalone="no"?>
<svg xmlns:rdf="http://www.w3.org/1999/02/22-rdf-syntax-ns#" xmlns="http://www.w3.org/2000/svg" height="260pt" width="955pt" version="1.1" xmlns:cc="http://creativecommons.org/ns#" xmlns:dc="http://purl.org/dc/elements/1.1/" viewBox="0 0 1193.7 325.01">
<g opacity=".4" transform="translate(215.58,-33.739)">
<g fill="#fff">
<path d="m-86.009 307.19-5.39 1.21 2-4.73z"/>
<path d="m32.993 89.962-4.3-10.28 10.7 2.72z"/>
<path d="m469.37 98.472-8.6 1.908 3.2-7.478z"/>
<path d="m777.36 293.73-3.2-7.7 7.9 2.04z"/>
<path d="m716.46 334.39-3.6-8.83 9.1 2.34z"/>
<path d="m747.86 124.87-4.3-10.42 10.7 2.76z"/>
<path d="m897.5 130.59-5.6 1.26 2.1-4.92z"/>
<path d="m554.77 302.47-8.4 1.86 3.1-7.3z"/>
<path d="m47.393 156.48-8.8 1.95 3.2-7.64z"/>
</g><g fill="#a28062">
<path d="m785.7 177.31-10.14-4.73 9.74-5.13z"/>
<path d="m301.88 95.852-7.6 5.788-0.3-8.708z"/>
<path d="m110.89 282.87-5.7 4.32-0.2-6.51z"/>
<path d="m-69.507 252.26-9.402 7.16-0.3-10.77z"/>
<path d="m-144.4 152.37-4.9 3.71-0.2-5.59z"/>
</g></g></svg>
